<?xml version="1.0" encoding="utf-8" standalone="no"?>
<!DOCTYPE svg PUBLIC "-//W3C//DTD SVG 1.1//EN"
  "http://www.w3.org/Graphics/SVG/1.1/DTD/svg11.dtd">
<!-- Created with matplotlib (http://matplotlib.org/) -->
<svg height="345.6pt" version="1.1" viewBox="0 0 460.8 345.6" width="460.8pt" xmlns="http://www.w3.org/2000/svg" xmlns:xlink="http://www.w3.org/1999/xlink">
 <defs>
  <style type="text/css">
*{stroke-linecap:butt;stroke-linejoin:round;}
  </style>
 </defs>
 <g id="figure_1">
  <g id="patch_1">
   <path d="M 0 345.6 
L 460.8 345.6 
L 460.8 0 
L 0 0 
z
" style="fill:#ffffff;"/>
  </g>
  <g id="axes_1">
   <g id="patch_2">
    <path d="M 57.6 276.48 
L 414.72 276.48 
L 414.72 41.472 
L 57.6 41.472 
z
" style="fill:#ffffff;"/>
   </g>
   <g id="matplotlib.axis_1">
    <g id="xtick_1">
     <g id="line2d_1">
      <defs>
       <path d="M 0 0 
L 0 3.5 
" id="maa6049fa7a" style="stroke:#000000;stroke-width:0.8;"/>
      </defs>
      <g>
       <use style="stroke:#000000;stroke-width:0.8;" x="84.800786" xlink:href="#maa6049fa7a" y="276.48"/>
      </g>
     </g>
     <g id="text_1">
      <!-- 2018-03 -->
      <defs>
       <path d="M 39.359375 52.6875 
Q 39.359375 59.125 35.546875 62.78125 
Q 31.734375 66.453125 25.4375 66.453125 
Q 20.953125 66.453125 16.453125 64.125 
Q 11.96875 61.8125 8.34375 57.765625 
L 8.34375 66.15625 
Q 15.328125 73.046875 26.421875 73.046875 
Q 35.640625 73.046875 41.28125 67.71875 
Q 46.921875 62.40625 46.921875 53.375 
Q 46.921875 45.609375 43.3125 39.765625 
Q 39.703125 33.9375 31 27.734375 
Q 22.796875 21.96875 19.59375 18.984375 
Q 16.40625 16.015625 15.109375 13.34375 
Q 13.8125 10.6875 13.8125 7.03125 
L 48.6875 7.03125 
L 48.6875 0 
L 5.5625 0 
L 5.5625 3.515625 
Q 5.5625 9.421875 7.203125 13.59375 
Q 8.84375 17.78125 12.671875 21.75 
Q 16.5 25.734375 24.953125 31.59375 
Q 32.671875 36.921875 36.015625 41.71875 
Q 39.359375 46.53125 39.359375 52.6875 
z
" id="MalgunGothic-32"/>
       <path d="M 4.34375 34.46875 
Q 4.34375 53.515625 10.546875 63.28125 
Q 16.75 73.046875 28.421875 73.046875 
Q 50.828125 73.046875 50.828125 36.234375 
Q 50.828125 18.0625 44.59375 8.421875 
Q 38.375 -1.21875 26.8125 -1.21875 
Q 15.875 -1.21875 10.109375 8.125 
Q 4.34375 17.484375 4.34375 34.46875 
z
M 12.25 34.859375 
Q 12.25 5.375 27.640625 5.375 
Q 42.921875 5.375 42.921875 35.296875 
Q 42.921875 66.40625 28.03125 66.40625 
Q 12.25 66.40625 12.25 34.859375 
z
" id="MalgunGothic-30"/>
       <path d="M 34.859375 0 
L 27.09375 0 
L 27.09375 62.0625 
Q 24.859375 59.8125 19.78125 57.203125 
Q 14.703125 54.59375 10.5 53.5625 
L 10.5 61.859375 
Q 15.875 63.375 22.015625 66.796875 
Q 28.171875 70.21875 31.734375 73.4375 
L 34.859375 73.4375 
z
" id="MalgunGothic-31"/>
       <path d="M 4.734375 20.015625 
Q 4.734375 26.078125 8.421875 31.421875 
Q 12.109375 36.765625 18.015625 38.96875 
Q 13.375 41.359375 10.546875 45.546875 
Q 7.71875 49.75 7.71875 54.6875 
Q 7.71875 59.8125 10.296875 64.03125 
Q 12.890625 68.265625 17.53125 70.65625 
Q 22.171875 73.046875 27.78125 73.046875 
Q 36.46875 73.046875 42.1875 67.84375 
Q 47.90625 62.640625 47.90625 54.6875 
Q 47.90625 49.703125 45.015625 45.53125 
Q 42.140625 41.359375 37.703125 38.96875 
Q 43.5625 36.71875 47.21875 31.390625 
Q 50.875 26.078125 50.875 20.015625 
Q 50.875 10.5 44.421875 4.640625 
Q 37.984375 -1.21875 27.78125 -1.21875 
Q 17.671875 -1.21875 11.203125 4.703125 
Q 4.734375 10.640625 4.734375 20.015625 
z
M 12.640625 20.75 
Q 12.640625 13.71875 16.890625 9.546875 
Q 21.140625 5.375 27.828125 5.375 
Q 34.46875 5.375 38.78125 9.671875 
Q 43.109375 13.96875 43.109375 20.75 
Q 43.109375 27.046875 38.78125 31.421875 
Q 34.46875 35.796875 27.828125 35.796875 
Q 21.4375 35.796875 17.03125 31.5625 
Q 12.640625 27.34375 12.640625 20.75 
z
M 15.671875 54.046875 
Q 15.671875 48.828125 19.28125 45.3125 
Q 22.90625 41.796875 27.828125 41.796875 
Q 32.765625 41.796875 36.40625 45.3125 
Q 40.046875 48.828125 40.046875 54.046875 
Q 40.046875 59.421875 36.578125 62.90625 
Q 33.109375 66.40625 27.828125 66.40625 
Q 22.65625 66.40625 19.15625 62.953125 
Q 15.671875 59.515625 15.671875 54.046875 
z
" id="MalgunGothic-38"/>
       <path d="M 34.578125 25.53125 
L 7.234375 25.53125 
L 7.234375 31.734375 
L 34.578125 31.734375 
z
" id="MalgunGothic-2d"/>
       <path d="M 6.5 11.234375 
Q 13.921875 5.375 23.09375 5.375 
Q 30.609375 5.375 35.21875 9.171875 
Q 39.84375 12.984375 39.84375 19.484375 
Q 39.84375 33.890625 19.578125 33.890625 
L 13.625 33.890625 
L 13.625 40.484375 
L 19.28125 40.484375 
Q 37.3125 40.484375 37.3125 53.953125 
Q 37.3125 66.40625 23.578125 66.40625 
Q 15.96875 66.40625 9.28125 61.1875 
L 9.28125 68.953125 
Q 16.109375 73.046875 25.53125 73.046875 
Q 34.125 73.046875 39.671875 68.3125 
Q 45.21875 63.578125 45.21875 55.953125 
Q 45.21875 41.84375 30.8125 37.640625 
L 30.8125 37.5 
Q 38.578125 36.8125 43.1875 32.078125 
Q 47.796875 27.34375 47.796875 20.3125 
Q 47.796875 10.5 40.6875 4.640625 
Q 33.59375 -1.21875 22.65625 -1.21875 
Q 12.59375 -1.21875 6.5 2.640625 
z
" id="MalgunGothic-33"/>
      </defs>
      <g transform="translate(51.447264 308.629246)rotate(-30)scale(0.1 -0.1)">
       <use xlink:href="#MalgunGothic-32"/>
       <use x="55.078125" xlink:href="#MalgunGothic-30"/>
       <use x="110.15625" xlink:href="#MalgunGothic-31"/>
       <use x="165.234375" xlink:href="#MalgunGothic-38"/>
       <use x="220.3125" xlink:href="#MalgunGothic-2d"/>
       <use x="261.328125" xlink:href="#MalgunGothic-30"/>
       <use x="316.40625" xlink:href="#MalgunGothic-33"/>
      </g>
     </g>
    </g>
    <g id="xtick_2">
     <g id="line2d_2">
      <g>
       <use style="stroke:#000000;stroke-width:0.8;" x="118.801769" xlink:href="#maa6049fa7a" y="276.48"/>
      </g>
     </g>
     <g id="text_2">
      <!-- 2018-04 -->
      <defs>
       <path d="M 42.234375 71.875 
L 42.234375 24.421875 
L 51.703125 24.421875 
L 51.703125 17.390625 
L 42.234375 17.390625 
L 42.234375 0 
L 34.578125 0 
L 34.578125 17.390625 
L 0.78125 17.390625 
L 0.78125 23.96875 
Q 11.375 35.890625 20.234375 48.578125 
Q 29.109375 61.28125 33.9375 71.875 
z
M 9.765625 24.421875 
L 34.578125 24.421875 
L 34.578125 59.859375 
Q 25.203125 43.5625 14.984375 30.953125 
z
" id="MalgunGothic-34"/>
      </defs>
      <g transform="translate(85.448247 308.629246)rotate(-30)scale(0.1 -0.1)">
       <use xlink:href="#MalgunGothic-32"/>
       <use x="55.078125" xlink:href="#MalgunGothic-30"/>
       <use x="110.15625" xlink:href="#MalgunGothic-31"/>
       <use x="165.234375" xlink:href="#MalgunGothic-38"/>
       <use x="220.3125" xlink:href="#MalgunGothic-2d"/>
       <use x="261.328125" xlink:href="#MalgunGothic-30"/>
       <use x="316.40625" xlink:href="#MalgunGothic-34"/>
      </g>
     </g>
    </g>
    <g id="xtick_3">
     <g id="line2d_3">
      <g>
       <use style="stroke:#000000;stroke-width:0.8;" x="151.705946" xlink:href="#maa6049fa7a" y="276.48"/>
      </g>
     </g>
     <g id="text_3">
      <!-- 2018-05 -->
      <defs>
       <path d="M 48 21.921875 
Q 48 11.28125 41.1875 5.03125 
Q 34.375 -1.21875 22.953125 -1.21875 
Q 12.9375 -1.21875 8.0625 1.765625 
L 8.0625 10.15625 
Q 15.53125 5.375 23.046875 5.375 
Q 30.765625 5.375 35.46875 9.84375 
Q 40.1875 14.3125 40.1875 21.4375 
Q 40.1875 28.71875 35.390625 32.6875 
Q 30.609375 36.671875 21.578125 36.671875 
Q 15.53125 36.671875 9.421875 35.9375 
L 11.859375 71.875 
L 44.828125 71.875 
L 44.828125 64.796875 
L 18.84375 64.796875 
L 17.28125 43.171875 
Q 21.046875 43.5 24.171875 43.5 
Q 35.359375 43.5 41.671875 37.71875 
Q 48 31.9375 48 21.921875 
z
" id="MalgunGothic-35"/>
      </defs>
      <g transform="translate(118.352424 308.629246)rotate(-30)scale(0.1 -0.1)">
       <use xlink:href="#MalgunGothic-32"/>
       <use x="55.078125" xlink:href="#MalgunGothic-30"/>
       <use x="110.15625" xlink:href="#MalgunGothic-31"/>
       <use x="165.234375" xlink:href="#MalgunGothic-38"/>
       <use x="220.3125" xlink:href="#MalgunGothic-2d"/>
       <use x="261.328125" xlink:href="#MalgunGothic-30"/>
       <use x="316.40625" xlink:href="#MalgunGothic-35"/>
      </g>
     </g>
    </g>
    <g id="xtick_4">
     <g id="line2d_4">
      <g>
       <use style="stroke:#000000;stroke-width:0.8;" x="185.706929" xlink:href="#maa6049fa7a" y="276.48"/>
      </g>
     </g>
     <g id="text_4">
      <!-- 2018-06 -->
      <defs>
       <path d="M 46.578125 63.578125 
Q 40.921875 66.40625 34.8125 66.40625 
Q 24.859375 66.40625 19.1875 57.640625 
Q 13.53125 48.875 13.578125 34.578125 
L 13.8125 34.578125 
Q 18.796875 44.875 30.28125 44.875 
Q 39.796875 44.875 45.359375 38.71875 
Q 50.921875 32.5625 50.921875 22.65625 
Q 50.921875 12.453125 44.640625 5.609375 
Q 38.375 -1.21875 28.515625 -1.21875 
Q 17.4375 -1.21875 11.5 7.46875 
Q 5.5625 16.15625 5.5625 31.546875 
Q 5.5625 49.703125 13.234375 61.375 
Q 20.90625 73.046875 34.71875 73.046875 
Q 42.1875 73.046875 46.578125 71 
z
M 14.15625 23.53125 
Q 14.15625 15.96875 18.203125 10.671875 
Q 22.265625 5.375 28.8125 5.375 
Q 35.109375 5.375 39.03125 10.078125 
Q 42.96875 14.796875 42.96875 21.6875 
Q 42.96875 29.5 39.203125 33.859375 
Q 35.453125 38.234375 28.71875 38.234375 
Q 22.5625 38.234375 18.359375 33.953125 
Q 14.15625 29.6875 14.15625 23.53125 
z
" id="MalgunGothic-36"/>
      </defs>
      <g transform="translate(152.353407 308.629246)rotate(-30)scale(0.1 -0.1)">
       <use xlink:href="#MalgunGothic-32"/>
       <use x="55.078125" xlink:href="#MalgunGothic-30"/>
       <use x="110.15625" xlink:href="#MalgunGothic-31"/>
       <use x="165.234375" xlink:href="#MalgunGothic-38"/>
       <use x="220.3125" xlink:href="#MalgunGothic-2d"/>
       <use x="261.328125" xlink:href="#MalgunGothic-30"/>
       <use x="316.40625" xlink:href="#MalgunGothic-36"/>
      </g>
     </g>
    </g>
    <g id="xtick_5">
     <g id="line2d_5">
      <g>
       <use style="stroke:#000000;stroke-width:0.8;" x="218.611106" xlink:href="#maa6049fa7a" y="276.48"/>
      </g>
     </g>
     <g id="text_5">
      <!-- 2018-07 -->
      <defs>
       <path d="M 50.203125 67.140625 
Q 38.71875 46.96875 32.25 29.96875 
Q 25.78125 12.984375 24.21875 0 
L 15.765625 0 
Q 16.9375 8.296875 20.15625 18.375 
Q 23.390625 28.46875 28.359375 39.640625 
Q 33.34375 50.828125 41.109375 64.796875 
L 4.546875 64.796875 
L 4.546875 71.875 
L 50.203125 71.875 
z
" id="MalgunGothic-37"/>
      </defs>
      <g transform="translate(185.257584 308.629246)rotate(-30)scale(0.1 -0.1)">
       <use xlink:href="#MalgunGothic-32"/>
       <use x="55.078125" xlink:href="#MalgunGothic-30"/>
       <use x="110.15625" xlink:href="#MalgunGothic-31"/>
       <use x="165.234375" xlink:href="#MalgunGothic-38"/>
       <use x="220.3125" xlink:href="#MalgunGothic-2d"/>
       <use x="261.328125" xlink:href="#MalgunGothic-30"/>
       <use x="316.40625" xlink:href="#MalgunGothic-37"/>
      </g>
     </g>
    </g>
    <g id="xtick_6">
     <g id="line2d_6">
      <g>
       <use style="stroke:#000000;stroke-width:0.8;" x="252.612088" xlink:href="#maa6049fa7a" y="276.48"/>
      </g>
     </g>
     <g id="text_6">
      <!-- 2018-08 -->
      <g transform="translate(219.258567 308.629246)rotate(-30)scale(0.1 -0.1)">
       <use xlink:href="#MalgunGothic-32"/>
       <use x="55.078125" xlink:href="#MalgunGothic-30"/>
       <use x="110.15625" xlink:href="#MalgunGothic-31"/>
       <use x="165.234375" xlink:href="#MalgunGothic-38"/>
       <use x="220.3125" xlink:href="#MalgunGothic-2d"/>
       <use x="261.328125" xlink:href="#MalgunGothic-30"/>
       <use x="316.40625" xlink:href="#MalgunGothic-38"/>
      </g>
     </g>
    </g>
    <g id="xtick_7">
     <g id="line2d_7">
      <g>
       <use style="stroke:#000000;stroke-width:0.8;" x="286.613071" xlink:href="#maa6049fa7a" y="276.48"/>
      </g>
     </g>
     <g id="text_7">
      <!-- 2018-09 -->
      <defs>
       <path d="M 8.6875 8.796875 
Q 14.703125 5.375 21.34375 5.375 
Q 31.15625 5.375 36.671875 13.359375 
Q 42.1875 21.34375 42.1875 36.140625 
Q 42.09375 36.03125 42 36.140625 
Q 37.3125 26.765625 25.828125 26.765625 
Q 16.546875 26.765625 10.65625 33.125 
Q 4.78125 39.5 4.78125 49.125 
Q 4.78125 59.46875 11.109375 66.25 
Q 17.4375 73.046875 27.6875 73.046875 
Q 38.53125 73.046875 44.265625 64.546875 
Q 50 56.0625 50 40.28125 
Q 50 20.609375 42.453125 9.6875 
Q 34.90625 -1.21875 21 -1.21875 
Q 13.765625 -1.21875 8.6875 1.21875 
z
M 12.703125 50.296875 
Q 12.703125 42.828125 16.609375 38.28125 
Q 20.515625 33.734375 27.484375 33.734375 
Q 33.546875 33.734375 37.59375 37.765625 
Q 41.65625 41.796875 41.65625 47.609375 
Q 41.65625 55.5625 37.671875 60.984375 
Q 33.6875 66.40625 26.953125 66.40625 
Q 20.65625 66.40625 16.671875 61.6875 
Q 12.703125 56.984375 12.703125 50.296875 
z
" id="MalgunGothic-39"/>
      </defs>
      <g transform="translate(253.259549 308.629246)rotate(-30)scale(0.1 -0.1)">
       <use xlink:href="#MalgunGothic-32"/>
       <use x="55.078125" xlink:href="#MalgunGothic-30"/>
       <use x="110.15625" xlink:href="#MalgunGothic-31"/>
       <use x="165.234375" xlink:href="#MalgunGothic-38"/>
       <use x="220.3125" xlink:href="#MalgunGothic-2d"/>
       <use x="261.328125" xlink:href="#MalgunGothic-30"/>
       <use x="316.40625" xlink:href="#MalgunGothic-39"/>
      </g>
     </g>
    </g>
    <g id="xtick_8">
     <g id="line2d_8">
      <g>
       <use style="stroke:#000000;stroke-width:0.8;" x="319.517248" xlink:href="#maa6049fa7a" y="276.48"/>
      </g>
     </g>
     <g id="text_8">
      <!-- 2018-10 -->
      <g transform="translate(286.163726 308.629246)rotate(-30)scale(0.1 -0.1)">
       <use xlink:href="#MalgunGothic-32"/>
       <use x="55.078125" xlink:href="#MalgunGothic-30"/>
       <use x="110.15625" xlink:href="#MalgunGothic-31"/>
       <use x="165.234375" xlink:href="#MalgunGothic-38"/>
       <use x="220.3125" xlink:href="#MalgunGothic-2d"/>
       <use x="261.328125" xlink:href="#MalgunGothic-31"/>
       <use x="316.40625" xlink:href="#MalgunGothic-30"/>
      </g>
     </g>
    </g>
    <g id="xtick_9">
     <g id="line2d_9">
      <g>
       <use style="stroke:#000000;stroke-width:0.8;" x="353.518231" xlink:href="#maa6049fa7a" y="276.48"/>
      </g>
     </g>
     <g id="text_9">
      <!-- 2018-11 -->
      <g transform="translate(320.164709 308.629246)rotate(-30)scale(0.1 -0.1)">
       <use xlink:href="#MalgunGothic-32"/>
       <use x="55.078125" xlink:href="#MalgunGothic-30"/>
       <use x="110.15625" xlink:href="#MalgunGothic-31"/>
       <use x="165.234375" xlink:href="#MalgunGothic-38"/>
       <use x="220.3125" xlink:href="#MalgunGothic-2d"/>
       <use x="261.328125" xlink:href="#MalgunGothic-31"/>
       <use x="316.40625" xlink:href="#MalgunGothic-31"/>
      </g>
     </g>
    </g>
    <g id="xtick_10">
     <g id="line2d_10">
      <g>
       <use style="stroke:#000000;stroke-width:0.8;" x="386.422408" xlink:href="#maa6049fa7a" y="276.48"/>
      </g>
     </g>
     <g id="text_10">
      <!-- 2018-12 -->
      <g transform="translate(353.068886 308.629246)rotate(-30)scale(0.1 -0.1)">
       <use xlink:href="#MalgunGothic-32"/>
       <use x="55.078125" xlink:href="#MalgunGothic-30"/>
       <use x="110.15625" xlink:href="#MalgunGothic-31"/>
       <use x="165.234375" xlink:href="#MalgunGothic-38"/>
       <use x="220.3125" xlink:href="#MalgunGothic-2d"/>
       <use x="261.328125" xlink:href="#MalgunGothic-31"/>
       <use x="316.40625" xlink:href="#MalgunGothic-32"/>
      </g>
     </g>
    </g>
   </g>
   <g id="matplotlib.axis_2">
    <g id="ytick_1">
     <g id="line2d_11">
      <defs>
       <path d="M 0 0 
L -3.5 0 
" id="ma8b1aa0a37" style="stroke:#000000;stroke-width:0.8;"/>
      </defs>
      <g>
       <use style="stroke:#000000;stroke-width:0.8;" x="57.6" xlink:href="#ma8b1aa0a37" y="271.762865"/>
      </g>
     </g>
     <g id="text_11">
      <!-- 0 -->
      <g transform="translate(45.092188 275.558959)scale(0.1 -0.1)">
       <use xlink:href="#MalgunGothic-30"/>
      </g>
     </g>
    </g>
    <g id="ytick_2">
     <g id="line2d_12">
      <g>
       <use style="stroke:#000000;stroke-width:0.8;" x="57.6" xlink:href="#ma8b1aa0a37" y="242.086016"/>
      </g>
     </g>
     <g id="text_12">
      <!-- 200000 -->
      <g transform="translate(17.553125 245.88211)scale(0.1 -0.1)">
       <use xlink:href="#MalgunGothic-32"/>
       <use x="55.078125" xlink:href="#MalgunGothic-30"/>
       <use x="110.15625" xlink:href="#MalgunGothic-30"/>
       <use x="165.234375" xlink:href="#MalgunGothic-30"/>
       <use x="220.3125" xlink:href="#MalgunGothic-30"/>
       <use x="275.390625" xlink:href="#MalgunGothic-30"/>
      </g>
     </g>
    </g>
    <g id="ytick_3">
     <g id="line2d_13">
      <g>
       <use style="stroke:#000000;stroke-width:0.8;" x="57.6" xlink:href="#ma8b1aa0a37" y="212.409167"/>
      </g>
     </g>
     <g id="text_13">
      <!-- 400000 -->
      <g transform="translate(17.553125 216.20526)scale(0.1 -0.1)">
       <use xlink:href="#MalgunGothic-34"/>
       <use x="55.078125" xlink:href="#MalgunGothic-30"/>
       <use x="110.15625" xlink:href="#MalgunGothic-30"/>
       <use x="165.234375" xlink:href="#MalgunGothic-30"/>
       <use x="220.3125" xlink:href="#MalgunGothic-30"/>
       <use x="275.390625" xlink:href="#MalgunGothic-30"/>
      </g>
     </g>
    </g>
    <g id="ytick_4">
     <g id="line2d_14">
      <g>
       <use style="stroke:#000000;stroke-width:0.8;" x="57.6" xlink:href="#ma8b1aa0a37" y="182.732318"/>
      </g>
     </g>
     <g id="text_14">
      <!-- 600000 -->
      <g transform="translate(17.553125 186.528411)scale(0.1 -0.1)">
       <use xlink:href="#MalgunGothic-36"/>
       <use x="55.078125" xlink:href="#MalgunGothic-30"/>
       <use x="110.15625" xlink:href="#MalgunGothic-30"/>
       <use x="165.234375" xlink:href="#MalgunGothic-30"/>
       <use x="220.3125" xlink:href="#MalgunGothic-30"/>
       <use x="275.390625" xlink:href="#MalgunGothic-30"/>
      </g>
     </g>
    </g>
    <g id="ytick_5">
     <g id="line2d_15">
      <g>
       <use style="stroke:#000000;stroke-width:0.8;" x="57.6" xlink:href="#ma8b1aa0a37" y="153.055469"/>
      </g>
     </g>
     <g id="text_15">
      <!-- 800000 -->
      <g transform="translate(17.553125 156.851562)scale(0.1 -0.1)">
       <use xlink:href="#MalgunGothic-38"/>
       <use x="55.078125" xlink:href="#MalgunGothic-30"/>
       <use x="110.15625" xlink:href="#MalgunGothic-30"/>
       <use x="165.234375" xlink:href="#MalgunGothic-30"/>
       <use x="220.3125" xlink:href="#MalgunGothic-30"/>
       <use x="275.390625" xlink:href="#MalgunGothic-30"/>
      </g>
     </g>
    </g>
    <g id="ytick_6">
     <g id="line2d_16">
      <g>
       <use style="stroke:#000000;stroke-width:0.8;" x="57.6" xlink:href="#ma8b1aa0a37" y="123.37862"/>
      </g>
     </g>
     <g id="text_16">
      <!-- 1000000 -->
      <g transform="translate(12.045313 127.174713)scale(0.1 -0.1)">
       <use xlink:href="#MalgunGothic-31"/>
       <use x="55.078125" xlink:href="#MalgunGothic-30"/>
       <use x="110.15625" xlink:href="#MalgunGothic-30"/>
       <use x="165.234375" xlink:href="#MalgunGothic-30"/>
       <use x="220.3125" xlink:href="#MalgunGothic-30"/>
       <use x="275.390625" xlink:href="#MalgunGothic-30"/>
       <use x="330.46875" xlink:href="#MalgunGothic-30"/>
      </g>
     </g>
    </g>
    <g id="ytick_7">
     <g id="line2d_17">
      <g>
       <use style="stroke:#000000;stroke-width:0.8;" x="57.6" xlink:href="#ma8b1aa0a37" y="93.70177"/>
      </g>
     </g>
     <g id="text_17">
      <!-- 1200000 -->
      <g transform="translate(12.045313 97.497864)scale(0.1 -0.1)">
       <use xlink:href="#MalgunGothic-31"/>
       <use x="55.078125" xlink:href="#MalgunGothic-32"/>
       <use x="110.15625" xlink:href="#MalgunGothic-30"/>
       <use x="165.234375" xlink:href="#MalgunGothic-30"/>
       <use x="220.3125" xlink:href="#MalgunGothic-30"/>
       <use x="275.390625" xlink:href="#MalgunGothic-30"/>
       <use x="330.46875" xlink:href="#MalgunGothic-30"/>
      </g>
     </g>
    </g>
    <g id="ytick_8">
     <g id="line2d_18">
      <g>
       <use style="stroke:#000000;stroke-width:0.8;" x="57.6" xlink:href="#ma8b1aa0a37" y="64.024921"/>
      </g>
     </g>
     <g id="text_18">
      <!-- 1400000 -->
      <g transform="translate(12.045313 67.821015)scale(0.1 -0.1)">
       <use xlink:href="#MalgunGothic-31"/>
       <use x="55.078125" xlink:href="#MalgunGothic-34"/>
       <use x="110.15625" xlink:href="#MalgunGothic-30"/>
       <use x="165.234375" xlink:href="#MalgunGothic-30"/>
       <use x="220.3125" xlink:href="#MalgunGothic-30"/>
       <use x="275.390625" xlink:href="#MalgunGothic-30"/>
       <use x="330.46875" xlink:href="#MalgunGothic-30"/>
      </g>
     </g>
    </g>
   </g>
   <g id="line2d_19">
    <path clip-path="url(#pf3a0d9662c)" d="M 73.832727 247.427849 
L 74.929533 247.813648 
L 76.026339 247.04205 
L 77.123145 247.220111 
L 78.219951 247.160757 
L 82.607174 247.902678 
L 83.70398 247.932355 
L 85.897592 248.436861 
L 89.18801 248.644599 
L 90.284816 248.140093 
L 91.381622 248.16977 
L 93.575233 247.962032 
L 96.865651 247.843325 
L 97.962457 247.427849 
L 99.059263 247.754294 
L 100.156069 247.427849 
L 101.252875 247.991709 
L 104.543292 248.466538 
L 105.640098 248.16977 
L 106.736904 248.199447 
L 107.83371 247.932355 
L 108.930516 248.525892 
L 113.31774 248.347831 
L 114.414545 248.496215 
L 115.511351 248.436861 
L 116.608157 248.2588 
L 120.995381 248.466538 
L 122.092187 249.386521 
L 123.188993 248.644599 
L 124.285799 248.911691 
L 128.673022 248.763307 
L 129.769828 248.882014 
L 130.866634 249.29749 
L 131.96344 249.089752 
L 136.350663 249.564582 
L 137.447469 249.445874 
L 139.641081 250.158119 
L 142.931499 249.950381 
L 144.028305 250.247149 
L 145.125111 249.712966 
L 146.221916 250.247149 
L 147.318722 250.514241 
L 150.60914 250.514241 
L 152.802752 249.86135 
L 154.996364 250.484564 
L 159.383587 250.069088 
L 162.674005 250.484564 
L 165.964423 250.484564 
L 167.061229 250.662625 
L 168.158034 250.989071 
L 169.25484 251.078101 
L 170.351646 251.345193 
L 173.642064 251.523254 
L 175.835676 251.4639 
L 176.932482 251.582607 
L 178.029287 251.434223 
L 181.319705 251.582607 
L 182.416511 251.93873 
L 183.513317 252.413559 
L 184.610123 251.909053 
L 185.706929 251.582607 
L 190.094152 251.760669 
L 192.287764 251.582607 
L 193.38457 250.959394 
L 197.771794 250.484564 
L 199.965405 250.781333 
L 201.062211 251.285839 
L 204.352629 251.167132 
L 205.449435 251.345193 
L 206.546241 251.315516 
L 207.643047 251.018747 
L 208.739853 250.306503 
L 212.03027 249.564582 
L 213.127076 249.950381 
L 214.223882 249.831673 
L 215.320688 249.594259 
L 216.417494 249.119429 
L 220.804717 249.594259 
L 221.901523 248.971045 
L 222.998329 249.060075 
L 224.095135 249.534905 
L 228.482359 249.20846 
L 229.579165 248.941368 
L 230.675971 248.555569 
L 231.772776 248.882014 
L 235.063194 248.882014 
L 236.16 249.238136 
L 237.256806 249.089752 
L 238.353612 249.060075 
L 239.450418 248.911691 
L 242.740835 248.792984 
L 243.837641 249.653612 
L 244.934447 249.623935 
L 246.031253 249.475551 
L 247.128059 249.475551 
L 250.418477 250.098765 
L 251.515283 250.514241 
L 252.612088 250.158119 
L 254.8057 250.069088 
L 258.096118 249.950381 
L 260.28973 249.505228 
L 261.386536 248.644599 
L 262.483342 248.882014 
L 265.773759 249.356844 
L 266.870565 249.29749 
L 269.064177 249.505228 
L 270.160983 249.356844 
L 273.4514 249.356844 
L 274.548206 249.594259 
L 275.645012 249.594259 
L 276.741818 248.852337 
L 277.838624 249.267813 
L 281.129042 248.941368 
L 282.225848 249.327167 
L 283.322654 249.564582 
L 284.419459 249.623935 
L 285.516265 249.445874 
L 289.903489 249.356844 
L 291.000295 249.920704 
L 292.097101 250.098765 
L 293.193907 250.039411 
L 297.58113 250.217472 
L 298.677936 250.098765 
L 299.774742 250.306503 
L 300.871548 250.098765 
L 305.258771 250.247149 
L 306.355577 250.069088 
L 307.452383 250.069088 
L 308.549189 250.247149 
L 315.130025 250.603271 
L 316.22683 250.514241 
L 319.517248 250.603271 
L 320.614054 251.315516 
L 322.807666 251.137455 
L 323.904472 250.870363 
L 330.485307 250.870363 
L 331.582113 250.692302 
L 335.969337 251.953568 
L 337.066143 252.472913 
L 338.162948 253.214834 
L 339.259754 252.843874 
L 342.550172 252.621297 
L 343.646978 253.140642 
L 344.743784 252.918066 
L 345.84059 254.10514 
L 346.937396 254.995445 
L 350.227813 255.51479 
L 351.324619 255.366406 
L 352.421425 254.772869 
L 353.518231 255.218021 
L 354.615037 254.4761 
L 357.905455 254.921253 
L 359.00226 254.401908 
L 360.099066 254.624485 
L 361.195872 254.4761 
L 362.292678 254.698677 
L 365.583096 254.698677 
L 366.679902 254.550292 
L 367.776708 254.624485 
L 368.873514 255.069637 
L 369.970319 255.069637 
L 373.260737 255.218021 
L 374.357543 255.737366 
L 375.454349 255.959943 
L 376.551155 255.51479 
L 377.647961 254.847061 
L 380.938378 253.363218 
L 382.035184 253.214834 
L 383.13199 252.621297 
L 384.228796 252.398721 
L 385.325602 252.992258 
L 388.61602 253.06645 
L 389.712826 253.437411 
L 390.809631 253.214834 
L 391.906437 253.956755 
L 393.003243 253.808371 
L 396.293661 254.10514 
L 397.390467 253.511603 
L 398.487273 253.289026 
L 398.487273 253.289026 
" style="fill:none;stroke:#1f77b4;stroke-linecap:square;stroke-width:1.5;"/>
   </g>
   <g id="line2d_20">
    <path clip-path="url(#pf3a0d9662c)" d="M 73.832727 110.320806 
L 74.929533 110.46919 
L 76.026339 110.320806 
L 77.123145 111.50788 
L 78.219951 107.056353 
L 81.510369 107.056353 
L 82.607174 106.907968 
L 83.70398 108.540195 
L 85.897592 109.282116 
L 89.18801 109.727269 
L 90.284816 112.991722 
L 91.381622 111.50788 
L 92.478428 104.978973 
L 93.575233 100.527446 
L 96.865651 99.043603 
L 97.962457 98.301682 
L 99.059263 103.346746 
L 100.156069 100.67583 
L 104.543292 101.269367 
L 105.640098 100.67583 
L 106.736904 101.120983 
L 107.83371 102.753209 
L 108.930516 105.57251 
L 112.220934 102.604825 
L 113.31774 99.191988 
L 114.414545 96.669455 
L 115.511351 94.888844 
L 116.608157 92.514697 
L 119.898575 86.134174 
L 120.995381 82.721336 
L 122.092187 84.353563 
L 123.188993 81.534262 
L 124.285799 85.540637 
L 127.576216 84.205179 
L 128.673022 78.121425 
L 129.769828 83.90841 
L 130.866634 86.430942 
L 131.96344 82.424568 
L 135.253857 82.276184 
L 136.350663 77.97304 
L 137.447469 78.863346 
L 138.544275 82.424568 
L 139.641081 82.127799 
L 142.931499 83.760026 
L 144.028305 83.760026 
L 145.125111 90.288933 
L 146.221916 85.392253 
L 147.318722 79.308499 
L 150.60914 68.476449 
L 152.802752 65.508764 
L 153.899558 77.082735 
L 154.996364 78.269809 
L 159.383587 79.902036 
L 160.480393 74.263434 
L 161.577199 77.527888 
L 162.674005 76.934351 
L 165.964423 80.347188 
L 167.061229 82.276184 
L 168.158034 80.792341 
L 169.25484 83.463258 
L 170.351646 83.611642 
L 173.642064 84.205179 
L 175.835676 86.876095 
L 176.932482 77.379504 
L 178.029287 75.895661 
L 181.319705 74.708587 
L 182.416511 73.373129 
L 183.513317 73.224745 
L 184.610123 72.482823 
L 185.706929 66.250685 
L 188.997346 69.663523 
L 192.287764 61.057237 
L 193.38457 65.211995 
L 196.674988 64.32169 
L 197.771794 58.534704 
L 199.965405 57.941167 
L 201.062211 60.612084 
L 204.352629 58.683089 
L 205.449435 62.689463 
L 206.546241 52.302566 
L 207.643047 56.754093 
L 208.739853 52.154182 
L 212.03027 55.863788 
L 213.127076 56.308941 
L 214.223882 59.128241 
L 215.320688 60.4637 
L 216.417494 64.618458 
L 219.707912 64.32169 
L 220.804717 73.669897 
L 221.901523 74.708587 
L 222.998329 70.850597 
L 224.095135 71.444134 
L 227.385553 72.779592 
L 228.482359 80.792341 
L 229.579165 78.863346 
L 231.772776 65.953917 
L 235.063194 64.470074 
L 236.16 70.998981 
L 237.256806 73.669897 
L 238.353612 81.237494 
L 239.450418 83.166489 
L 242.740835 82.869721 
L 243.837641 74.263434 
L 244.934447 85.243869 
L 246.031253 87.914785 
L 247.128059 84.650332 
L 250.418477 88.211553 
L 251.515283 92.217928 
L 252.612088 84.501947 
L 253.708894 85.837405 
L 254.8057 83.018105 
L 258.096118 85.392253 
L 259.192924 87.766401 
L 260.28973 91.624391 
L 261.386536 90.734086 
L 262.483342 93.405002 
L 265.773759 95.037229 
L 266.870565 95.927534 
L 269.064177 95.482381 
L 270.160983 96.669455 
L 273.4514 101.71452 
L 274.548206 95.482381 
L 275.645012 95.185613 
L 276.741818 85.98579 
L 277.838624 85.392253 
L 281.129042 81.831031 
L 282.225848 87.024479 
L 283.322654 86.727711 
L 284.419459 84.353563 
L 285.516265 84.056795 
L 288.806683 85.689021 
L 289.903489 84.9471 
L 291.000295 85.689021 
L 292.097101 88.359938 
L 293.193907 89.84378 
L 296.484324 93.70177 
L 297.58113 94.295307 
L 298.677936 93.553386 
L 299.774742 96.372687 
L 300.871548 87.321248 
L 304.161966 90.140549 
L 305.258771 85.689021 
L 306.355577 87.469632 
L 307.452383 90.585701 
L 308.549189 91.030854 
L 315.130025 82.127799 
L 316.22683 82.424568 
L 319.517248 76.489198 
L 320.614054 79.308499 
L 322.807666 94.146923 
L 323.904472 95.037229 
L 327.194889 95.185613 
L 329.388501 102.604825 
L 330.485307 116.40456 
L 331.582113 106.759584 
L 334.872531 111.953033 
L 335.969337 110.172422 
L 337.066143 109.4305 
L 338.162948 111.359496 
L 339.259754 111.953033 
L 342.550172 106.462816 
L 343.646978 110.46919 
L 344.743784 109.282116 
L 345.84059 102.604825 
L 346.937396 107.798274 
L 350.227813 116.552944 
L 351.324619 114.772333 
L 352.421425 116.849713 
L 353.518231 103.346746 
L 354.615037 99.63714 
L 357.905455 104.237052 
L 359.00226 98.746835 
L 360.099066 99.785525 
L 361.195872 98.746835 
L 362.292678 107.056353 
L 365.583096 109.4305 
L 366.679902 112.991722 
L 367.776708 111.50788 
L 368.873514 99.191988 
L 369.970319 100.972599 
L 373.260737 97.559761 
L 374.357543 100.230677 
L 375.454349 100.230677 
L 376.551155 98.301682 
L 377.647961 102.456441 
L 380.938378 101.862904 
L 382.035184 99.63714 
L 383.13199 97.856529 
L 384.228796 98.153298 
L 385.325602 99.63714 
L 388.61602 93.70177 
L 389.712826 95.185613 
L 390.809631 95.333997 
L 391.906437 99.63714 
L 393.003243 102.753209 
L 396.293661 99.340372 
L 397.390467 100.972599 
L 398.487273 101.417751 
L 398.487273 101.417751 
" style="fill:none;stroke:#ff7f0e;stroke-linecap:square;stroke-width:1.5;"/>
   </g>
   <g id="line2d_21">
    <path clip-path="url(#pf3a0d9662c)" d="M 73.832727 264.584035 
L 74.929533 264.729452 
L 81.510369 264.732419 
L 83.70398 264.779902 
L 89.18801 265.055897 
L 91.381622 264.548423 
L 93.575233 264.382232 
L 96.865651 264.382232 
L 97.962457 264.097335 
L 100.156069 264.115141 
L 101.252875 264.174495 
L 106.736904 264.186365 
L 107.83371 264.079529 
L 108.930516 264.3852 
L 113.31774 264.34662 
L 114.414545 264.536552 
L 116.608157 264.459392 
L 120.995381 264.622615 
L 122.092187 264.800676 
L 123.188993 264.530617 
L 124.285799 264.581067 
L 128.673022 264.509843 
L 130.866634 264.492037 
L 131.96344 264.373329 
L 137.447469 264.14185 
L 138.544275 263.931144 
L 139.641081 264.10327 
L 142.931499 264.061723 
L 144.028305 264.275396 
L 145.125111 264.284299 
L 146.221916 264.02611 
L 147.318722 263.8985 
L 153.899558 263.8985 
L 154.996364 264.061723 
L 159.383587 263.957854 
L 160.480393 264.210107 
L 161.577199 264.106238 
L 165.964423 264.328814 
L 167.061229 264.46236 
L 168.158034 264.36591 
L 170.351646 264.417845 
L 173.642064 264.343653 
L 175.835676 264.076561 
L 176.932482 264.135915 
L 178.029287 263.943015 
L 181.319705 264.002369 
L 182.416511 264.150753 
L 183.513317 264.417845 
L 185.706929 264.150753 
L 192.287764 264.254622 
L 193.38457 264.395587 
L 197.771794 264.432683 
L 201.062211 264.692356 
L 204.352629 264.848159 
L 206.546241 264.788805 
L 215.320688 264.818482 
L 227.385553 264.996543 
L 228.482359 264.892674 
L 230.675971 265.011382 
L 231.772776 264.862997 
L 236.16 264.959447 
L 239.450418 264.722032 
L 244.934447 264.914932 
L 247.128059 264.803644 
L 258.096118 264.966866 
L 259.192924 264.833321 
L 261.386536 264.803644 
L 262.483342 265.02622 
L 274.548206 265.115251 
L 275.645012 264.922351 
L 283.322654 264.818482 
L 285.516265 264.573648 
L 292.097101 264.922351 
L 293.193907 265.100412 
L 297.58113 265.078155 
L 299.774742 265.226539 
L 300.871548 264.959447 
L 305.258771 265.011382 
L 308.549189 264.729452 
L 315.130025 264.714613 
L 316.22683 264.870417 
L 320.614054 264.981705 
L 323.904472 265.130089 
L 329.388501 265.041059 
L 330.485307 265.367504 
L 331.582113 265.233958 
L 344.743784 265.449115 
L 345.84059 265.679111 
L 350.227813 265.619757 
L 351.324619 265.478792 
L 353.518231 265.508469 
L 354.615037 265.2117 
L 361.195872 265.226539 
L 365.583096 265.055897 
L 367.776708 265.21912 
L 369.970319 265.233958 
L 374.357543 265.412019 
L 375.454349 265.515888 
L 377.647961 265.471373 
L 384.228796 265.360085 
L 385.325602 265.552984 
L 388.61602 265.345246 
L 391.906437 265.753303 
L 393.003243 265.68653 
L 397.390467 265.790399 
L 398.487273 265.760722 
L 398.487273 265.760722 
" style="fill:none;stroke:#2ca02c;stroke-linecap:square;stroke-width:1.5;"/>
   </g>
   <g id="patch_3">
    <path d="M 57.6 276.48 
L 57.6 41.472 
" style="fill:none;stroke:#000000;stroke-linecap:square;stroke-linejoin:miter;stroke-width:0.8;"/>
   </g>
   <g id="patch_4">
    <path d="M 414.72 276.48 
L 414.72 41.472 
" style="fill:none;stroke:#000000;stroke-linecap:square;stroke-linejoin:miter;stroke-width:0.8;"/>
   </g>
   <g id="patch_5">
    <path d="M 57.6 276.48 
L 414.72 276.48 
" style="fill:none;stroke:#000000;stroke-linecap:square;stroke-linejoin:miter;stroke-width:0.8;"/>
   </g>
   <g id="patch_6">
    <path d="M 57.6 41.472 
L 414.72 41.472 
" style="fill:none;stroke:#000000;stroke-linecap:square;stroke-linejoin:miter;stroke-width:0.8;"/>
   </g>
   <g id="legend_1">
    <g id="patch_7">
     <path d="M 323.9075 182.910375 
L 407.72 182.910375 
Q 409.72 182.910375 409.72 180.910375 
L 409.72 137.041625 
Q 409.72 135.041625 407.72 135.041625 
L 323.9075 135.041625 
Q 321.9075 135.041625 321.9075 137.041625 
L 321.9075 180.910375 
Q 321.9075 182.910375 323.9075 182.910375 
z
" style="fill:#ffffff;opacity:0.8;stroke:#cccccc;stroke-linejoin:miter;"/>
    </g>
    <g id="line2d_22">
     <path d="M 325.9075 143.133812 
L 345.9075 143.133812 
" style="fill:none;stroke:#1f77b4;stroke-linecap:square;stroke-width:1.5;"/>
    </g>
    <g id="line2d_23"/>
    <g id="text_19">
     <!-- NAVER -->
     <defs>
      <path d="M 67 0 
L 57.078125 0 
L 19.578125 58.015625 
Q 18.40625 59.8125 17.328125 62.5 
L 17.09375 62.5 
Q 17.4375 59.71875 17.4375 52.6875 
L 17.4375 0 
L 9.515625 0 
L 9.515625 71.875 
L 19.96875 71.875 
L 56.453125 14.65625 
Q 58.984375 10.6875 59.328125 9.90625 
L 59.515625 9.90625 
Q 58.984375 13.484375 58.984375 20.5625 
L 58.984375 71.875 
L 67 71.875 
z
" id="MalgunGothic-4e"/>
      <path d="M 64.59375 0 
L 55.859375 0 
L 48.046875 20.40625 
L 17.234375 20.40625 
L 9.96875 0 
L 1.171875 0 
L 28.8125 71.875 
L 36.8125 71.875 
z
M 45.359375 27.640625 
L 33.890625 58.6875 
Q 33.25 60.40625 32.8125 63.421875 
L 32.5625 63.421875 
Q 32.03125 60.0625 31.390625 58.6875 
L 20.015625 27.640625 
z
" id="MalgunGothic-41"/>
      <path d="M 62.5 71.875 
L 35.75 0 
L 27.09375 0 
L 0.921875 71.875 
L 9.765625 71.875 
L 29.984375 14.40625 
Q 30.90625 11.71875 31.390625 8.109375 
L 31.640625 8.109375 
Q 32.03125 11.140625 33.25 14.5 
L 53.953125 71.875 
z
" id="MalgunGothic-56"/>
      <path d="M 47.265625 0 
L 9.515625 0 
L 9.515625 71.875 
L 45.65625 71.875 
L 45.65625 64.59375 
L 17.390625 64.59375 
L 17.390625 40.1875 
L 43.5 40.1875 
L 43.5 32.953125 
L 17.390625 32.953125 
L 17.390625 7.234375 
L 47.265625 7.234375 
z
" id="MalgunGothic-45"/>
      <path d="M 60.40625 0 
L 50.921875 0 
L 38.875 20.21875 
Q 35.015625 26.65625 31.9375 28.703125 
Q 28.859375 30.765625 24.515625 30.765625 
L 17.390625 30.765625 
L 17.390625 0 
L 9.515625 0 
L 9.515625 71.875 
L 30.671875 71.875 
Q 40.578125 71.875 46.40625 66.75 
Q 52.25 61.625 52.25 52.734375 
Q 52.25 37.84375 36.328125 33.40625 
L 36.328125 33.203125 
Q 39.359375 31.890625 41.328125 29.71875 
Q 43.3125 27.546875 46.96875 21.578125 
z
M 17.390625 64.5 
L 17.390625 38.09375 
L 29.15625 38.09375 
Q 35.796875 38.09375 39.875 41.96875 
Q 43.953125 45.84375 43.953125 52.09375 
Q 43.953125 57.953125 40.15625 61.21875 
Q 36.375 64.5 29.25 64.5 
z
" id="MalgunGothic-52"/>
     </defs>
     <g transform="translate(353.9075 146.633812)scale(0.1 -0.1)">
      <use xlink:href="#MalgunGothic-4e"/>
      <use x="76.513672" xlink:href="#MalgunGothic-41"/>
      <use x="142.240234" xlink:href="#MalgunGothic-56"/>
      <use x="205.667969" xlink:href="#MalgunGothic-45"/>
      <use x="257.376953" xlink:href="#MalgunGothic-52"/>
     </g>
    </g>
    <g id="line2d_24">
     <path d="M 325.9075 158.090062 
L 345.9075 158.090062 
" style="fill:none;stroke:#ff7f0e;stroke-linecap:square;stroke-width:1.5;"/>
    </g>
    <g id="line2d_25"/>
    <g id="text_20">
     <!-- LG생활건강 -->
     <defs>
      <path d="M 46.4375 0 
L 9.515625 0 
L 9.515625 71.875 
L 17.390625 71.875 
L 17.390625 7.234375 
L 46.4375 7.234375 
z
" id="MalgunGothic-4c"/>
      <path d="M 62.84375 4.9375 
Q 52.09375 -1.21875 38.921875 -1.21875 
Q 23.828125 -1.21875 14.296875 8.71875 
Q 4.78125 18.65625 4.78125 34.96875 
Q 4.78125 51.609375 15.296875 62.328125 
Q 25.828125 73.046875 41.890625 73.046875 
Q 53.953125 73.046875 61.53125 69.1875 
L 61.53125 60.25 
Q 52.828125 65.765625 40.921875 65.765625 
Q 28.71875 65.765625 20.90625 57.359375 
Q 13.09375 48.96875 13.09375 35.59375 
Q 13.09375 21.734375 20.3125 13.859375 
Q 27.546875 6 40.046875 6 
Q 48.875 6 54.9375 9.46875 
L 54.9375 30.03125 
L 39.109375 30.03125 
L 39.109375 37.25 
L 62.84375 37.25 
z
" id="MalgunGothic-47"/>
      <path d="M 77.984375 30.515625 
L 77.984375 54.109375 
L 67 54.109375 
L 67 33.015625 
L 59.71875 33.015625 
L 59.71875 83.5 
L 67 83.5 
L 67 60.40625 
L 77.984375 60.40625 
L 77.984375 85.40625 
L 85.296875 85.40625 
L 85.296875 30.515625 
z
M 49.03125 37.59375 
Q 43.65625 40.671875 37.984375 47.015625 
Q 32.328125 53.375 30.328125 58.203125 
Q 28.5625 52.640625 22.921875 45.78125 
Q 17.28125 38.921875 11.1875 35.203125 
L 6 40.09375 
Q 15.328125 45.015625 21.015625 53.78125 
Q 26.703125 62.546875 26.703125 72.125 
L 26.703125 82.078125 
L 33.6875 82.078125 
L 33.6875 72.125 
Q 33.6875 63.09375 39.625 54.90625 
Q 45.5625 46.734375 53.8125 43.015625 
z
M 54.5 -7.171875 
Q 39.65625 -7.171875 31.375 -2.171875 
Q 23.09375 2.828125 23.09375 10.796875 
Q 23.09375 18.75 31.375 23.78125 
Q 39.65625 28.8125 54.5 28.8125 
Q 69.4375 28.8125 77.703125 23.78125 
Q 85.984375 18.75 85.984375 10.796875 
Q 85.984375 2.828125 77.703125 -2.171875 
Q 69.4375 -7.171875 54.5 -7.171875 
z
M 54.5 22.609375 
Q 43.0625 22.609375 36.9375 19.265625 
Q 30.8125 15.921875 30.8125 10.796875 
Q 30.8125 5.609375 36.984375 2.3125 
Q 43.171875 -0.984375 54.5 -0.984375 
Q 65.765625 -0.984375 71.984375 2.28125 
Q 78.21875 5.5625 78.21875 10.796875 
Q 78.21875 15.96875 72.015625 19.28125 
Q 65.828125 22.609375 54.5 22.609375 
z
" id="MalgunGothic-c0dd"/>
      <path d="M 9.515625 71.578125 
L 9.515625 77.59375 
L 33.59375 77.59375 
L 33.59375 86.375 
L 40.921875 86.375 
L 40.921875 77.59375 
L 64.984375 77.59375 
L 64.984375 71.578125 
z
M 81.5 48.78125 
L 81.5 29.78125 
L 74.21875 29.78125 
L 74.21875 85.40625 
L 81.5 85.40625 
L 81.5 55.421875 
L 95.609375 55.421875 
L 95.609375 48.78125 
z
M 7.328125 30.90625 
L 6.59375 36.921875 
Q 13.1875 36.921875 33.59375 37.3125 
L 33.59375 43.796875 
Q 24.171875 44.390625 18.984375 47.703125 
Q 13.8125 51.03125 13.8125 55.90625 
Q 13.8125 61.234375 20.0625 64.625 
Q 26.3125 68.015625 37.3125 68.015625 
Q 48.296875 68.015625 54.484375 64.59375 
Q 60.6875 61.1875 60.6875 55.90625 
Q 60.6875 50.828125 55.484375 47.609375 
Q 50.296875 44.390625 40.828125 43.796875 
L 40.828125 37.5 
Q 56.34375 37.75 67.1875 38.484375 
L 67.921875 32.71875 
Q 59.859375 32.078125 37.6875 31.484375 
Q 15.53125 30.90625 7.328125 30.90625 
z
M 37.3125 62.5 
Q 21.1875 62.5 21.1875 55.90625 
Q 21.1875 49.3125 37.3125 49.3125 
Q 53.328125 49.3125 53.328125 55.90625 
Q 53.328125 62.5 37.3125 62.5 
z
M 23 -8.015625 
L 23 11.71875 
L 74.3125 11.71875 
L 74.3125 19 
L 23 19 
L 23 25 
L 81.5 25 
L 81.5 6 
L 30.171875 6 
L 30.171875 -2 
L 84.078125 -2 
L 84.078125 -8.015625 
z
" id="MalgunGothic-d65c"/>
      <path d="M 77.296875 16.5 
L 77.296875 48.09375 
L 55.609375 48.09375 
L 55.609375 54.59375 
L 77.296875 54.59375 
L 77.296875 85.40625 
L 84.625 85.40625 
L 84.625 16.5 
z
M 56.5 79.390625 
Q 54.5 61.921875 43 48.4375 
Q 31.5 34.96875 13.375 27.09375 
L 8.5 33.015625 
Q 23.578125 38.421875 34.390625 49.09375 
Q 45.21875 59.765625 47.90625 72.90625 
L 14.703125 72.90625 
L 14.703125 79.390625 
z
M 26.90625 -5.078125 
L 26.90625 24.609375 
L 34.1875 24.609375 
L 34.1875 1.515625 
L 87.3125 1.515625 
L 87.3125 -5.078125 
z
" id="MalgunGothic-ac74"/>
      <path d="M 80.078125 52.6875 
L 80.078125 31.390625 
L 72.796875 31.390625 
L 72.796875 85.40625 
L 80.078125 85.40625 
L 80.078125 59.515625 
L 94.28125 59.515625 
L 94.28125 52.6875 
z
M 54.890625 79.890625 
Q 53.078125 60.15625 39.859375 47.484375 
Q 26.65625 34.8125 12.40625 29.203125 
L 7.171875 35.109375 
Q 21.6875 39.703125 32.9375 50.390625 
Q 44.1875 61.078125 46.296875 73.390625 
L 12.984375 73.390625 
L 12.984375 79.890625 
z
M 50.984375 -7.078125 
Q 36.328125 -7.078125 28.21875 -2 
Q 20.125 3.078125 20.125 11.1875 
Q 20.125 19.234375 28.171875 24.3125 
Q 36.234375 29.390625 50.984375 29.390625 
Q 65.875 29.390625 73.921875 24.328125 
Q 81.984375 19.28125 81.984375 11.1875 
Q 81.984375 3.078125 73.84375 -2 
Q 65.71875 -7.078125 50.984375 -7.078125 
z
M 50.984375 23.09375 
Q 39.984375 23.09375 33.875 19.765625 
Q 27.78125 16.453125 27.78125 11.1875 
Q 27.78125 5.90625 33.78125 2.5625 
Q 39.796875 -0.78125 50.984375 -0.78125 
Q 62.203125 -0.78125 68.203125 2.5625 
Q 74.21875 5.90625 74.21875 11.1875 
Q 74.21875 16.453125 68.109375 19.765625 
Q 62.015625 23.09375 50.984375 23.09375 
z
" id="MalgunGothic-ac15"/>
     </defs>
     <g transform="translate(353.9075 161.590062)scale(0.1 -0.1)">
      <use xlink:href="#MalgunGothic-4c"/>
      <use x="47.951172" xlink:href="#MalgunGothic-47"/>
      <use x="118.117188" xlink:href="#MalgunGothic-c0dd"/>
      <use x="218.117188" xlink:href="#MalgunGothic-d65c"/>
      <use x="318.117188" xlink:href="#MalgunGothic-ac74"/>
      <use x="418.117188" xlink:href="#MalgunGothic-ac15"/>
     </g>
    </g>
    <g id="line2d_26">
     <path d="M 325.9075 173.046312 
L 345.9075 173.046312 
" style="fill:none;stroke:#2ca02c;stroke-linecap:square;stroke-width:1.5;"/>
    </g>
    <g id="line2d_27"/>
    <g id="text_21">
     <!-- 삼성전자 -->
     <defs>
      <path d="M 80.078125 53.71875 
L 80.078125 33.40625 
L 72.796875 33.40625 
L 72.796875 85.40625 
L 80.078125 85.40625 
L 80.078125 60.296875 
L 94.28125 60.296875 
L 94.28125 53.71875 
z
M 56.296875 36.71875 
Q 50.203125 39.984375 43.484375 46.28125 
Q 36.765625 52.59375 34.1875 58.015625 
Q 31.59375 51.90625 25.140625 45.046875 
Q 18.703125 38.1875 11.71875 34.28125 
L 6.390625 39.3125 
Q 16.796875 44.34375 23.65625 53.609375 
Q 30.515625 62.890625 30.515625 72.796875 
L 30.515625 82.71875 
L 37.5 82.71875 
L 37.5 72.796875 
Q 37.5 63.375 44.453125 54.734375 
Q 51.421875 46.09375 61.078125 42 
z
M 22.609375 -6.203125 
L 22.609375 28.21875 
L 80.078125 28.21875 
L 80.078125 -6.203125 
z
M 72.90625 21.78125 
L 29.78125 21.78125 
L 29.78125 0.203125 
L 72.90625 0.203125 
z
" id="MalgunGothic-c0bc"/>
      <path d="M 77.296875 31 
L 77.296875 59.078125 
L 55.328125 59.078125 
L 55.328125 65.625 
L 77.296875 65.625 
L 77.296875 85.40625 
L 84.625 85.40625 
L 84.625 31 
z
M 57.078125 36.375 
Q 50.6875 39.84375 44.234375 46.09375 
Q 37.796875 52.34375 35.203125 57.8125 
Q 32.421875 51.609375 25.921875 44.65625 
Q 19.4375 37.703125 12.796875 33.984375 
L 7.625 39.015625 
Q 17.71875 43.84375 24.546875 53.015625 
Q 31.390625 62.203125 31.390625 72.3125 
L 31.390625 82.328125 
L 38.484375 82.328125 
L 38.484375 72.3125 
Q 38.484375 62.890625 45.5625 54.25 
Q 52.640625 45.609375 62.015625 41.703125 
z
M 55.71875 -7.421875 
Q 40.96875 -7.421875 32.9375 -2.3125 
Q 24.90625 2.78125 24.90625 10.890625 
Q 24.90625 19 32.90625 24.046875 
Q 40.921875 29.109375 55.71875 29.109375 
Q 70.515625 29.109375 78.515625 24.046875 
Q 86.53125 19 86.53125 10.890625 
Q 86.53125 2.78125 78.484375 -2.3125 
Q 70.453125 -7.421875 55.71875 -7.421875 
z
M 55.71875 22.90625 
Q 44.53125 22.90625 38.625 19.5 
Q 32.71875 16.109375 32.71875 10.890625 
Q 32.71875 5.609375 38.640625 2.234375 
Q 44.578125 -1.125 55.71875 -1.125 
Q 66.796875 -1.125 72.75 2.21875 
Q 78.71875 5.5625 78.71875 10.890625 
Q 78.71875 16.15625 72.796875 19.53125 
Q 66.890625 22.90625 55.71875 22.90625 
z
" id="MalgunGothic-c131"/>
      <path d="M 76.21875 18.40625 
L 76.21875 55.078125 
L 54.203125 55.078125 
L 54.203125 61.625 
L 76.21875 61.625 
L 76.21875 85.40625 
L 83.5 85.40625 
L 83.5 18.40625 
z
M 57.421875 32.328125 
Q 50.4375 36.625 44.203125 43.375 
Q 37.984375 50.140625 35.40625 55.71875 
Q 32.671875 49.21875 25.96875 41.375 
Q 19.28125 33.546875 12.796875 29.890625 
L 7.515625 34.90625 
Q 17.578125 39.984375 24.578125 49.96875 
Q 31.59375 59.96875 31.59375 70.21875 
L 31.59375 73.6875 
L 10.6875 73.6875 
L 10.6875 80.328125 
L 59.1875 80.328125 
L 59.1875 73.6875 
L 38.71875 73.6875 
L 38.71875 70.21875 
Q 38.71875 60.84375 45.984375 51.34375 
Q 53.265625 41.84375 62.3125 37.59375 
z
M 25.484375 -5.71875 
L 25.484375 25.09375 
L 32.8125 25.09375 
L 32.8125 0.6875 
L 85.984375 0.6875 
L 85.984375 -5.71875 
z
" id="MalgunGothic-c804"/>
      <path d="M 79.59375 40.625 
L 79.59375 -8.796875 
L 72.3125 -8.796875 
L 72.3125 85.40625 
L 79.59375 85.40625 
L 79.59375 47.125 
L 95.90625 47.125 
L 95.90625 40.625 
z
M 57.421875 14.203125 
Q 50.4375 19.53125 43.875 28.3125 
Q 37.3125 37.109375 35.109375 44.09375 
Q 33.203125 37.40625 26.75 28.265625 
Q 20.3125 19.140625 12.5 12.890625 
L 6.890625 17.71875 
Q 17.1875 24.515625 24.234375 36.9375 
Q 31.296875 49.359375 31.296875 60.796875 
L 31.296875 70.703125 
L 10.40625 70.703125 
L 10.40625 77.203125 
L 58.984375 77.203125 
L 58.984375 70.703125 
L 38.484375 70.703125 
L 38.484375 61.28125 
Q 38.484375 49.8125 45.5625 38.03125 
Q 52.640625 26.265625 62.5 19.671875 
z
" id="MalgunGothic-c790"/>
     </defs>
     <g transform="translate(353.9075 176.546312)scale(0.1 -0.1)">
      <use xlink:href="#MalgunGothic-c0bc"/>
      <use x="100" xlink:href="#MalgunGothic-c131"/>
      <use x="200" xlink:href="#MalgunGothic-c804"/>
      <use x="300" xlink:href="#MalgunGothic-c790"/>
     </g>
    </g>
   </g>
  </g>
 </g>
 <defs>
  <clipPath id="pf3a0d9662c">
   <rect height="235.008" width="357.12" x="57.6" y="41.472"/>
  </clipPath>
 </defs>
</svg>
